<?xml version="1.0" encoding="UTF-8" standalone="no"?>
<svg width="45px" height="39px" viewBox="0 0 45 39" version="1.1" xmlns="http://www.w3.org/2000/svg" xmlns:xlink="http://www.w3.org/1999/xlink" xmlns:sketch="http://www.bohemiancoding.com/sketch/ns">
    <!-- Generator: Sketch 3.1 (8751) - http://www.bohemiancoding.com/sketch -->
    <title>Group 3</title>
    <desc>Created with Sketch.</desc>
    <defs></defs>
    <g id="Page-1" stroke="none" stroke-width="1" fill="none" fill-rule="evenodd" sketch:type="MSPage">
        <g id="Project-List-Page---Team-Filter" sketch:type="MSArtboardGroup" transform="translate(-36.000000, -32.000000)">
            <g id="Group-3" sketch:type="MSLayerGroup" transform="translate(40.000000, 34.000000)">
                <path d="M17.5102041,5.00366569 C17.5102041,2.24010264 15.5483878,0 13.1326531,0 C10.7128776,0 8.75510204,2.24010264 8.75510204,5.00366569 C8.75510204,5.77884897 8.91,6.50861437 9.18746939,7.15909091" id="Shape" stroke="#FFFFFF" stroke-width="3" sketch:type="MSShapeGroup" transform="translate(13.132653, 3.579545) rotate(-1.000000) translate(-13.132653, -3.579545) "></path>
                <path d="M36.1142411,16.0040047 C35.3617431,16.0040047 35.0050165,15.6640798 34.9499989,15.3169417 C34.5568897,12.8022191 32.9489576,9.5346126 28.9078304,8.10097728 C28.5351357,6.9621614 28.2591462,6.65471897 28.7367993,5.29256128 C29.2144523,3.93040359 30.3552452,3.17568876 30.7803236,2.45203481 C27.9131809,2.06971439 25.5837059,3.34202936 24.1053313,6.65471876 C22.4397195,6.240858 20.6596358,6.01724696 18.8005753,6.01724696 C13.9332975,6.01724696 10.2622075,7.51760492 7.32320589,9.84207778 C4.66905312,11.9420379 3.00166662,15.4585019 3.1995523,20.2553195 C3.34863209,23.8736707 5.82885843,26.6345458 7.73140056,28.1808883 C8.0056009,28.4008927 8.55222681,28.7534408 8.26649054,29.6523932 C7.97986688,30.5495424 7.46518664,31.8019445 7.46518664,31.8019445 C7.1652523,32.600813 7.56368579,33.4979622 8.34901685,33.8018207 L11.2046048,34.8982362 C11.9908233,35.2029964 12.8737661,34.7999555 13.172813,34.0001853 C13.172813,34.0001853 13.5526116,32.9948373 13.8614197,32.1562959 C14.4479777,30.5801987 14.8064791,31.8587489 18.8005753,31.8587489 C22.9508503,31.8587489 23.3696935,31.0364374 23.8036222,32.3276108 C24.081372,33.1706605 24.4274501,34.0001853 24.4274501,34.0001853 C24.723835,34.7999555 25.6076652,35.2029964 26.3965457,34.8982362 L29.2485842,33.8018207 C30.0365774,33.4979622 30.4358983,32.600813 30.1350765,31.8019445 L29.6771886,30.5711821 C29.6771886,30.5711821 29.2113142,29.7596904 30.2096164,29.2087778 C32.1991218,28.1087557 33.6987935,26.4397878 34.6713617,24.3785989 C34.8781212,23.9367868 35.1833798,23.3362829 36.1142411,23.3362829 L37.5580079,23.3362829 C38.3531002,23.3362829 39,22.6789746 39,21.8719912 L39,17.4728046 C39,16.6640179 38.3531002,16.0040047 37.5580079,16.0040047 L36.1142411,16.0040047 Z M28.6555572,18.2954545 C27.7743472,18.2954545 27.0612245,17.5827472 27.0612245,16.7037138 C27.0612245,15.8263437 27.7743472,15.1136364 28.6555572,15.1136364 C29.5342709,15.1136364 30.2448972,15.8263437 30.2448972,16.7037138 C30.2457293,17.5819156 29.5342709,18.2954545 28.6555572,18.2954545 Z" id="Shape" fill="#FFFFFF" sketch:type="MSShapeGroup"></path>
                <path d="M3.97959184,15.1136364 C3.97959184,15.1136364 0,14.286607 0,11.0285267 C0,9.69262885 0.742662983,8.46341398 2.04180313,7.95454545" id="Shape" stroke="#FFFFFF" stroke-width="4" sketch:type="MSShapeGroup"></path>
            </g>
        </g>
    </g>
</svg>